PathFileType	4	(X/Y/Z)	Run_300 02
DataRate	CameraRate	NumFrames	NumMarkers	Units	OrigDataRate	OrigDataStartFrame	OrigNumFrames
100	100	8	42	mm	100	4	128
Frame#	Time	LASI			RASI			LPSI			RPSI			RTH1			RTH2			RTH3			LTH1			LTH2			LTH3			RTB1			RTB2			RTB3			LTB1			LTB2			LTB3			RCAL			RTOE			RMT5			LCAL			LTOE			LMT5			LACR			RACR			CLAV			C7			RUA1			RUA2			RUA3			RLEL			RMEL			LUA1			LUA2			LUA3			LLEL			LMEL			RFAsuperior			RFAradius			RFAulna			LFAsuperior			LFAradius			LFAulna			
		X1	Y1	Z1	X2	Y2	Z2	X3	Y3	Z3	X4	Y4	Z4	X5	Y5	Z5	X6	Y6	Z6	X7	Y7	Z7	X8	Y8	Z8	X9	Y9	Z9	X10	Y10	Z10	X11	Y11	Z11	X12	Y12	Z12	X13	Y13	Z13	X14	Y14	Z14	X15	Y15	Z15	X16	Y16	Z16	X17	Y17	Z17	X18	Y18	Z18	X19	Y19	Z19	X20	Y20	Z20	X21	Y21	Z21	X22	Y22	Z22	X23	Y23	Z23	X24	Y24	Z24	X25	Y25	Z25	X26	Y26	Z26	X27	Y27	Z27	X28	Y28	Z28	X29	Y29	Z29	X30	Y30	Z30	X31	Y31	Z31	X32	Y32	Z32	X33	Y33	Z33	X34	Y34	Z34	X35	Y35	Z35	X36	Y36	Z36	X37	Y37	Z37	X38	Y38	Z38	X39	Y39	Z39	X40	Y40	Z40	X41	Y41	Z41	X42	Y42	Z42	

1	0.43	929.032503	981.703424	-425.369785	945.181162	999.728743	-186.424237	778.388157	1048.081157	-348.367362	776.8671849999999	1047.276898	-247.545802	941.479601	767.740823	-113.044428	1027.664107	708.898084	-132.188827	1006.154444	604.847507	-157.295582	829.4033930000001	788.9754809999999	-459.107819	840.306521	673.108111	-441.94007	739.9581010000001	595.545978	-432.232995	1104.153109	416.120355	-223.540459	1078.804558	330.886015	-180.851617	1124.069705	232.272005	-246.605104	637.783755	414.478182	-369.890758	543.7239510000001	416.446258	-426.418934	467.455581	324.311797	-365.114582	1054.63667	101.399533	-277.227234	1267.803129	160.955584	-283.148036	1235.847789	99.730125	-190.656154	335.05806	357.316005	-353.079358	360.898383	141.17953	-334.617854	314.05601	170.773431	-430.282564	950.547408	1476.179037	-450.626702	923.864604	1471.726973	-160.897496	1016.725137	1400.940193	-279.44974	884.884819	1503.423442	-309.441947	822.408723	1413.871222	-74.373045	752.223018	1389.695444	-132.017822	727.571861	1330.849585	-62.284184	662.997809	1289.321918	-51.23608	653.318533	1279.704552	-128.238796	916.802519	1371.47673	-551.470443	856.975252	1311.922197	-543.1388899999999	914.202838	1277.268425	-597.13381	902.0520770000001	1193.270341	-633.766599	859.356331	1164.05935	-577.3527350000001	740.120912	1204.025371	-35.093386	842.242134	1119.491366	-86.039081	782.211218	1083.243595	-74.702384	997.13026	1216.702774	-565.026288	1062.696337	1213.773535	-441.02565	1100.834119	1172.576291	-475.514991	
2	0.44	930.587037	977.238421	-425.541197	947.1075	993.972514	-186.104708	779.491847	1041.420422	-347.085213	778.737352	1040.052001	-246.651977	943.502661	760.963311	-114.722614	1029.316607	702.65816	-134.484972	1004.960914	597.613509	-158.922897	835.111949	782.387262	-458.930722	848.743919	666.589187	-442.055881	750.615598	586.844339	-433.123539	1097.73322	405.668701	-225.074107	1070.428353	321.164325	-181.722053	1113.111894	221.192266	-247.276587	645.609928	408.953187	-370.443388	551.487378	415.527851	-427.019333	469.769114	330.173239	-365.993312	1041.022039	98.978844	-280.181437	1255.814003	141.555697	-279.631062	1216.182989	83.816952	-186.587704	337.628768	370.760253	-353.820559	355.236465	153.613876	-337.924466	311.730869	186.076031	-434.029126	949.245627	1470.634337	-449.52896	925.334032	1465.788171	-159.358142	1017.111412	1395.240246	-279.321084	884.79692	1497.931819	-307.286394	825.145579	1406.803241	-71.575503	754.325839	1382.465588	-128.095852	731.1531670000001	1323.053813	-58.157039	667.080252	1280.9736	-46.542545	656.574475	1271.265808	-123.466071	913.489887	1366.090065	-550.513153	853.2826240000001	1306.855966	-541.265159	909.662302	1272.521804	-596.579457	896.538938	1189.207873	-633.774593	854.482473	1159.962449	-576.752787	745.730538	1196.90454	-31.789315	848.0162769999999	1113.637025	-84.3884	788.6314630000001	1076.58027	-71.992186	993.315242	1209.579869	-566.043752	1063.715221	1202.386678	-442.479286	1097.780653	1161.887782	-479.162305	
3	0.45	932.364523	971.483739	-425.651981	948.639227	987.423027	-185.697104	780.432535	1033.479365	-346.198714	779.860243	1031.969738	-246.223824	945.477601	754.436568	-116.799672	1030.498963	696.206532	-136.96433	1003.457441	590.179995	-160.206649	840.9112280000001	774.765905	-458.972946	857.694353	659.138674	-443.552608	761.925028	577.240143	-434.253654	1091.472373	395.076876	-226.191871	1060.431713	311.534378	-182.903733	1100.475135	209.894899	-248.612436	655.31305	402.542957	-371.604502	561.118372	413.664265	-428.171079	474.74696	335.229662	-367.015403	1023.161669	99.362526	-283.645667	1239.695265	117.344936	-278.89922	1192.899211	66.608588	-185.307578	344.181627	383.63805	-354.06804	352.140638	165.793808	-341.267045	311.511397	201.392798	-437.453251	947.306917	1464.500672	-448.276373	926.513333	1458.84751	-157.941744	1017.296793	1388.669123	-279.379066	884.166159	1490.995873	-305.061872	828.0023200000001	1398.686577	-68.725915	756.201926	1374.036291	-123.558462	735.225095	1313.640712	-53.415353	671.82146	1271.019102	-40.872525	659.965372	1261.359018	-117.667855	908.971962	1360.430207	-549.291129	848.658538	1301.443131	-539.015118	904.100201	1267.447175	-595.944416	889.905438	1184.780498	-633.560222	848.646665	1155.390776	-576.21028	752.0767039999999	1188.221119	-27.652457	854.544571	1106.63963	-82.274917	795.892887	1068.592034	-68.74954700000001	988.588114	1201.698776	-567.384578	1063.747317	1189.673141	-444.851677	1093.579259	1149.94333	-483.768776	
4	0.46	934.2483590000001	964.5905279999999	-425.401237	948.995905	980.456514	-185.487661	781.090359	1024.62201	-345.886209	779.436902	1023.481833	-246.032975	946.308857	748.6288950000001	-117.842458	1030.840944	690.006791	-138.017514	1003.095748	584.14601	-160.177011	846.730326	766.090401	-458.913239	866.849893	650.847877	-445.901771	773.8962	566.751755	-435.312243	1087.016858	386.850807	-227.038173	1051.927668	304.468082	-184.622355	1087.501125	201.337973	-251.351052	666.923371	395.64185	-373.568531	572.640052	411.281632	-430.090205	482.438506	339.460381	-368.138987	1001.68269	101.409572	-287.1465	1220.00191	94.32116000000001	-281.037485	1168.149608	53.840826	-186.705994	354.745312	395.509196	-353.845535	351.757654	177.360805	-344.908248	313.307799	216.611355	-440.556064	944.8261220000001	1458.120563	-447.20774	927.631838	1451.159419	-156.495831	1017.413592	1381.357612	-279.606276	882.9546800000001	1482.981939	-302.796513	831.065877	1389.477068	-65.87922	757.930576	1364.306224	-118.486043	739.841647	1302.748377	-48.233961	677.296227	1259.659574	-34.384793	663.53773	1250.130163	-110.839028	903.3548939999999	1354.425367	-547.786888	843.344423	1295.635839	-536.443883	897.622242	1262.03869	-595.386845	882.166738	1180.05953	-633.136897	841.810402	1150.450673	-575.5895389999999	759.105361	1178.081755	-22.796906	861.8095530000001	1098.612783	-79.81423700000001	803.9719250000001	1059.408872	-65.10049100000001	982.910303	1193.159321	-569.017924	1062.358705	1176.020317	-448.299612	1088.133181	1137.017233	-489.347971	
5	0.47	935.877033	956.962494	-424.549287	947.539628	973.800866	-185.307029	781.467182	1015.348856	-346.307399	777.278404	1015.029536	-246.071476	945.758769	744.178581	-117.362071	1031.086342	685.837428	-137.214774	1005.484157	581.135526	-158.413685	852.725696	756.863965	-458.48608	875.955876	642.2832550000001	-448.330779	786.606365	555.709572	-435.951307	1084.324804	382.424345	-228.479985	1046.912099	301.429173	-186.795119	1073.822627	197.340672	-255.495946	680.617674	388.822889	-376.078074	586.217669	409.128601	-432.546104	493.003631	342.985839	-369.172077	976.9446809999999	103.852456	-289.999336	1196.930358	78.307641	-284.496616	1142.234892	48.635092	-189.073376	369.08499	406.018761	-353.246367	354.518616	188.090937	-348.946826	317.582612	231.53136	-443.310154	941.787393	1451.950433	-446.744348	928.8462050000001	1443.194525	-154.756738	1017.529652	1373.677955	-280.065734	881.3781750000001	1474.906916	-300.308773	834.419835	1379.156998	-62.97605	759.742475	1353.207361	-112.829885	745.035076	1290.510679	-42.751683	683.563824	1247.123096	-27.250243	667.342972	1237.692812	-103.021859	896.855288	1348.025772	-546.025802	837.518267	1289.346264	-533.648835	890.302806	1256.315913	-595.025334	873.3102259999999	1175.184493	-632.551921	834.0283460000001	1145.366038	-574.7034619999999	766.777253	1166.633157	-17.400128	869.811538	1089.706551	-77.180938	812.900751	1049.145993	-61.288106	976.181254	1184.182103	-570.874943	1059.554429	1161.703499	-452.789977	1081.394575	1123.378096	-495.919514	
6	0.48	936.867165	949.145449	-423.060762	944.4125780000001	968.371538	-184.49083	781.65387	1006.206344	-347.514954	773.848325	1006.999333	-246.572292	944.661484	741.204961	-116.104157	1031.994283	684.836976	-135.609296	1010.24782	580.883754	-155.667861	859.210032	748.053501	-457.694491	885.1288510000001	634.421374	-450.058807	800.250783	544.9069930000001	-436.006895	1081.472981	380.771005	-230.945505	1043.627238	301.423064	-188.831496	1058.016093	196.906698	-259.707094	696.605808	382.592197	-378.301661	602.085064	407.75585	-434.767733	506.626914	345.924539	-369.949766	949.660516	105.948015	-291.588403	1170.958828	70.93876299999999	-287.07108	1114.646352	49.139006	-190.488838	386.722424	414.956277	-352.361373	361.037307	197.881289	-353.143832	325.236069	245.712308	-445.753606	938.245263	1446.282976	-447.078202	929.998057	1435.517076	-152.719564	1017.553743	1366.235973	-280.823721	880.020926	1467.920806	-297.522909	838.174934	1367.842264	-59.948753	761.978314	1340.821006	-106.583395	750.864868	1277.204385	-37.056437	690.747747	1233.635455	-19.630861	671.578169	1224.114761	-94.42959500000001	889.9043799999999	1341.469962	-544.120173	831.272823	1282.691583	-530.629543	882.199658	1250.509676	-594.729916	863.364792	1170.443776	-631.726482	825.503586	1140.521252	-573.446431	775.180014	1154.078436	-11.724687	878.604901	1080.109184	-74.55646	822.769964	1037.975577	-57.600215	968.298657	1175.26097	-572.833859	1055.385375	1147.117383	-458.119982	1073.280147	1109.473755	-503.340491	
7	0.49	937.106588	941.608712	-421.071458	940.505053	964.753385	-182.487238	781.695277	997.687175	-349.380307	769.692498	999.7343949999999	-247.681614	943.759639	738.874676	-115.201848	1032.859348	685.533782	-134.441862	1014.348683	580.851719	-153.492249	866.314433	740.500135	-456.801223	894.9442299999999	628.153544	-450.540886	815.160706	535.3261220000001	-435.571634	1076.166054	379.023937	-233.518759	1037.548803	301.656708	-190.00824	1039.151864	196.952504	-262.209151	714.954512	377.179238	-379.376255	620.3937100000001	406.979397	-435.965402	523.307132	348.337818	-370.40477	920.921253	107.442422	-291.753692	1143.077306	69.276285	-287.644541	1085.50951	51.019355	-190.288181	406.877181	422.297043	-351.21337	371.902769	206.636432	-356.992364	337.28704	258.38825	-447.987884	934.623094	1441.063991	-447.980155	930.662989	1428.559263	-150.798089	1017.302429	1359.586025	-281.808155	879.558793	1462.519433	-294.882036	842.444885	1355.826017	-56.908091	764.861901	1327.527194	-99.946611	757.502646	1263.356305	-31.200387	699.107162	1219.426281	-11.676585	676.73202	1209.462242	-85.418707	883.15868	1335.311981	-542.340479	824.773015	1276.213351	-527.252577	873.436949	1245.11252	-594.161552	852.515655	1166.227973	-630.52122	816.405435	1136.362766	-571.8290029999999	784.710914	1140.797389	-6.145065	888.361858	1070.048156	-72.09660599999999	833.703436	1026.22167	-54.232362	959.305932	1167.096814	-574.700126	1049.737599	1133.015253	-463.802158	1063.649956	1096.090222	-511.117789	
8	0.5	936.765757	934.675871	-418.834679	936.76939	962.736464	-179.523579	781.505901	990.174189	-351.597377	765.222887	993.5127230000001	-249.245951	942.60568	735.866138	-115.204141	1031.708691	684.415483	-133.967538	1014.08899	578.172684	-153.064546	873.752912	734.405608	-456.105935	906.144553	623.706664	-449.639242	831.681421	527.605432	-434.905776	1067.237416	374.629982	-234.681396	1025.327058	299.698673	-190.211523	1017.400519	194.917537	-262.547302	735.543067	372.581526	-379.154793	641.114098	406.01666	-435.980077	542.741095	350.271121	-370.469903	891.622624	108.31449	-290.998646	1114.241019	69.184757	-286.827663	1055.636896	51.584484	-189.199447	428.609152	428.174234	-349.82564	387.354706	214.078814	-360.008142	354.383987	268.656484	-450.105913	931.6698730000001	1436.052269	-448.98286	930.537044	1422.478064	-149.505054	1016.687499	1353.891384	-282.790848	880.174813	1458.327367	-293.286678	847.183796	1343.582737	-54.237836	768.28864	1314.006109	-93.337631	765.205525	1249.665414	-25.273727	709.010566	1204.815922	-3.55255	683.430033	1193.948085	-76.258965	877.224876	1330.115596	-541.033323	818.371787	1270.792064	-523.409564	864.261469	1240.674762	-593.054313	841.132127	1162.859496	-628.8873170000001	806.692602	1133.221306	-569.855939	796.066821	1127.48103	-1.119617	899.368054	1059.809061	-69.988888	845.897435	1014.382723	-51.1844	949.469462	1160.282341	-576.2180949999999	1042.52975	1120.358382	-469.029576	1052.440121	1084.16432	-518.447535	
